<svg id="eeTacMy6SVH1" xmlns="http://www.w3.org/2000/svg" xmlns:xlink="http://www.w3.org/1999/xlink" width="75" height="100" viewBox="0 0 1500 2000" shape-rendering="geometricPrecision" text-rendering="geometricPrecision"><g transform="translate(192.264969 459.255066)"><path id="eeTacMy6SVH3" d="M416.01,900.65c234.78,0,261-223.13,261-319.1c0-2.87-4.11-3.51-4.77-.71-96.26,404.38-555.73,172.55-616.53,38.15-.94-2.08-4.12-1.26-4.12,1.02v399.89c0,5.91,4.79,10.71,10.71,10.71h70.32c5.89,0,10.71-4.82,10.71-10.71v-191.99c0-1.75,1.96-2.77,3.4-1.79c0,0,106.91,74.53,269.28,74.53Z" transform="matrix(.707107 0.707107-.707107 0.707107 545.721217-235.997698)" opacity="0" fill="#fff"/><path id="eeTacMy6SVH4" d="M400.58,628.96c66.83,0,128.71-23.11,180.93-61.47c1.78-1.31,4.17.51,3.35,2.55-29.27,73.38-115.04,141.68-204.33,141.68-165.3,0-329.39-127.9-329.28-363.48L49.9,59c0-4.66,3.81-8.52,8.52-8.52h72.51c5.89,0,10.71,4.82,10.71,10.71v308.84c0,201.73,193.04,258.93,258.93,258.93Z" transform="matrix(.707107 0.707107-.707107 0.707107 545.721218-235.997698)" opacity="0" fill="#fff"/><g clip-path="url(#eeTacMy6SVH9)"><g><path d="M141.65,64.8c29.16,401.12,178.46,564.58,439.86,506.31v-1210.74h-464L141.65,64.8Z" fill="#fff"/><path d="M51.59,620c223.97,257.02,558.19,255.81,620.65-39.17L661.66,1997.91l-816.84,10.86L51.59,620Z" fill="#fff"/></g><clipPath id="eeTacMy6SVH9"><rect id="eeTacMy6SVH10" width="92.3" height="0" rx="11.4" ry="11.4" transform="translate(229.72-990.070006)" fill="none"/></clipPath></g></g><g transform="translate(192.264969 459.255066)"><path id="eeTacMy6SVH12" d="M699.46,180.85c-234.78,0-261,223.13-261,319.1c0,2.87,4.11,3.51,4.77.71c96.26-404.38,555.73-172.55,616.53-38.15.94,2.08,4.12,1.26,4.12-1.02v-399.89c0-5.91-4.79-10.71-10.71-10.71h-70.32c-5.89,0-10.71,4.82-10.71,10.71v191.99c0,1.75-1.96,2.77-3.4,1.79c0,0-106.91-74.53-269.28-74.53Z" transform="matrix(.707107 0.707107-.707107 0.707107 545.72122-235.997697)" opacity="0" fill="#fff"/><path id="eeTacMy6SVH13" d="M714.89,452.54c-66.83,0-128.71,23.11-180.93,61.47-1.78,1.31-4.17-.51-3.35-2.55c29.27-73.38,115.04-141.68,204.33-141.68c165.3,0,329.39,127.9,329.28,363.48l1.35,289.24c0,4.66-3.81,8.52-8.52,8.52h-72.51c-5.89,0-10.71-4.82-10.71-10.71v-308.84c0-201.73-193.04-258.93-258.93-258.93Z" transform="matrix(.707107 0.707107-.707107 0.707107 545.721218-235.997698)" opacity="0" fill="#fff"/><g clip-path="url(#eeTacMy6SVH18)"><g><path d="M973.83,1016.69C944.67,615.57,795.37,452.11,533.97,510.38v1210.74h464l-24.14-704.43Z" fill="#fff"/><path d="M1063.88,461.49C839.91,204.47,505.69,205.68,443.23,500.66l10.58-1417.08l816.84-10.86L1063.88,461.49Z" fill="#fff"/></g><clipPath id="eeTacMy6SVH18"><rect id="eeTacMy6SVH19" width="92.3" height="0" rx="11.4" ry="11.4" transform="matrix(-1 0 0-1 885.76 1949.17)" opacity="0" fill="none"/></clipPath></g></g></svg>