<svg viewBox="0 0 900 650" height="650" width="900" xmlns="http://www.w3.org/2000/svg" xmlns:xlink="http://www.w3.org/1999/xlink" version="1.1"><g transform-origin="center" transform="scale(1, 1) rotate(0)"><rect x="0" y="0" width="900" height="650" fill="#002438"></rect><linearGradient id="linear-gradient-smooth-27"><stop offset="0%" stop-color="#ff0005ff" stop-opacity="100%"></stop><stop offset="100%" stop-color="#ff0092ff" stop-opacity="100%"></stop></linearGradient><filter id="shadow-smooth-27" x="0" width="100%" y="-20%" height="150%"><feDropShadow dx="0" dy="0" stdDeviation="10" flood-color="#00000078"></feDropShadow></filter><path d="M0 227.49999999999997 S271.8501888681203 274.3501888681203 450 271.54535675421357 S719.0453567542136 271.54535675421357 900 265.45498218387365 L900 650 L0 650Z" fill="none" strokeLinecap="round" filter="url(#shadow-smooth-27)" strokeWidth="1" style="transition: all 0.4s cubic-bezier(0.16, 1, 0.3, 1) 0s; fill: url(&quot;#linear-gradient-smooth-27&quot;);"></path><path d="M0 247.74999999999997 S269.04535675421357 291.79535675421357 450 332.47723942250013 S759.7272394225001 332.47723942250013 900 252.89932223595676 L900 650 L0 650Z" fill="none" strokeLinecap="round" filter="url(#shadow-smooth-27)" strokeWidth="1" style="transition: all 0.4s cubic-bezier(0.16, 1, 0.3, 1) 0s; fill: url(&quot;#linear-gradient-smooth-27&quot;);"></path><path d="M0 308.5 S309.72723942250013 393.22723942250013 450 346.45498218387365 S712.9549821838737 346.45498218387365 900 210.8409506306052 L900 650 L0 650Z" fill="none" strokeLinecap="round" filter="url(#shadow-smooth-27)" strokeWidth="1" style="transition: all 0.4s cubic-bezier(0.16, 1, 0.3, 1) 0s; fill: url(&quot;#linear-gradient-smooth-27&quot;);"></path><path d="M0 409.75 S262.95498218387365 447.70498218387365 450 414.8993222359568 S680.1493222359568 414.8993222359568 900 341.00903396867216 L900 650 L0 650Z" fill="none" strokeLinecap="round" filter="url(#shadow-smooth-27)" strokeWidth="1" style="transition: all 0.4s cubic-bezier(0.16, 1, 0.3, 1) 0s; fill: url(&quot;#linear-gradient-smooth-27&quot;);"></path><path d="M0 551.5 S230.1493222359568 556.6493222359568 450 453.8409506306052 S772.6590493693948 453.8409506306052 900 491.24578361958265 L900 650 L0 650Z" fill="none" strokeLinecap="round" filter="url(#shadow-smooth-27)" strokeWidth="1" style="transition: all 0.4s cubic-bezier(0.16, 1, 0.3, 1) 0s; fill: url(&quot;#linear-gradient-smooth-27&quot;);"></path></g></svg>