<svg viewBox="0 0 900 650" height="650" width="900" xmlns="http://www.w3.org/2000/svg" xmlns:xlink="http://www.w3.org/1999/xlink" version="1.1"><g transform-origin="450 325" transform="scale(1, 1) rotate(0)"><rect x="0" y="0" width="900" height="650" fill="#ff0071ff"></rect><linearGradient id="linear-gradient-smooth-97"><stop offset="0%" stop-color="#95ffda" stop-opacity="100%"></stop><stop offset="100%" stop-color="#95ffa1ff" stop-opacity="100%"></stop></linearGradient><filter id="shadow-smooth-97" x="-20%" width="150%" y="-20%" height="150%"><feDropShadow dx="0" dy="0" stdDeviation="10" flood-color="#00000061"></feDropShadow></filter><path d="M0 0 C 0 0 0 532.5414788117632 0 532.5414788117632 C262.342509443406 522.342509443406 181.37003777362406 366.7400755472481 274.0550566604361 274.0550566604361 C  366.7400755472481 181.37003777362406  520 326.0784491058439  526.2707394058816 0  L0 0Z" fill="none" strokeLinecap="round" filter="url(#shadow-smooth-97)" strokeWidth="1" style="transition: all 0.4s cubic-bezier(0.16, 1, 0.3, 1) 0s; fill: url(&quot;#linear-gradient-smooth-97&quot;);"></path></g><g transform-origin="450 325" transform="scale(-1, -1) rotate(0)"><linearGradient id="linear-gradient-smooth-97"><stop offset="0%" stop-color="#95ffda" stop-opacity="100%"></stop><stop offset="100%" stop-color="#95ffa1ff" stop-opacity="100%"></stop></linearGradient><filter id="shadow-smooth-97" x="-20%" width="150%" y="-20%" height="150%"><feDropShadow dx="0" dy="0" stdDeviation="10" flood-color="#00000061"></feDropShadow></filter><path d="M0 0 C 0 0 0 534.685018886812 0 534.685018886812 C262.2022678377107 522.2022678377107 180.80907135084271 365.61814270168543 273.21360702626407 273.21360702626407 C  365.61814270168543 180.80907135084271  520 381.8104910571128  527.342509443406 0  L0 0Z" fill="none" strokeLinecap="round" filter="url(#shadow-smooth-97)" strokeWidth="1" style="transition: all 0.4s cubic-bezier(0.16, 1, 0.3, 1) 0s; fill: url(&quot;#linear-gradient-smooth-97&quot;);"></path></g></svg>