<svg width="752" height="754" viewBox="0 0 752 754" fill="none" xmlns="http://www.w3.org/2000/svg">
<path d="M289.5 308V290L457.5 247L461 255L470.5 312.5L475 368.5V408.5L457.5 434L438 444.5L414 450.5L388.5 429L367 408.5L356 381V343.5L351 331.5L341 335.5V326L334 312.5H327.5L321.5 300.5H314L303.5 308H289.5Z" fill="#D9D9D9"/>
<path d="M327.712 401.458C326.544 401.458 325.506 400.744 325.117 399.576C316.1 371.088 314.997 328.714 320.706 316.709C324.857 307.883 329.917 307.689 332.512 308.403C340.362 310.414 345.487 324.236 344.838 335.333C344.773 336.825 343.411 337.993 341.919 337.928C340.427 337.864 339.259 336.566 339.324 335.008C339.908 325.274 335.172 314.762 331.085 313.724C328.685 313.14 326.414 317.293 325.571 319.11C320.9 328.973 321.095 369.141 330.242 397.954C330.696 399.379 329.917 400.937 328.49 401.394C328.296 401.394 327.971 401.458 327.712 401.458Z" fill="white"/>
<path d="M307.539 393.411C306.372 393.411 305.333 392.696 304.944 391.528C296.057 364.988 298.068 327.026 300.857 317.357C303.063 309.57 307.28 299.966 314.546 298.409C319.022 297.435 323.563 299.642 328.104 305.028C329.077 306.196 332.71 310.608 329.92 311.711C326.287 313.074 324.925 309.765 323.952 308.597C321.811 306.066 318.633 303.146 315.648 303.795C312.145 304.574 308.577 310.219 306.112 318.915C303.777 327.026 301.506 364.079 310.134 389.842C310.588 391.268 309.875 392.825 308.383 393.282C308.123 393.346 307.799 393.411 307.539 393.411Z" fill="white"/>
<path d="M244.934 624.165C244.87 624.165 244.87 624.165 244.805 624.165C243.312 624.1 242.145 622.804 242.21 621.311C242.923 606.777 247.983 595.875 257.26 588.863C272.505 577.38 294.108 580.298 300.206 581.466C319.992 556.744 300.336 472.19 292.811 440.003C291.383 433.774 290.216 428.973 289.761 426.179C286.907 410.477 280.29 396.461 274.517 384.131C267.575 369.466 261.607 356.812 263.423 344.937C266.213 326.767 280.485 307.884 293.978 304.574C299.752 303.147 304.812 304.834 308.185 309.376C309.093 310.609 308.834 312.296 307.602 313.205C306.369 314.113 304.682 313.854 303.774 312.621C301.698 309.83 298.909 308.922 295.276 309.83C285.22 312.361 271.402 328.584 268.807 345.78C267.25 355.969 272.895 367.909 279.446 381.795C285.415 394.45 292.162 408.727 295.146 425.208C295.665 427.933 296.703 432.605 298.195 438.771C306.693 475.369 326.674 561.091 303.255 586.334C302.606 587.049 301.568 587.374 300.66 587.113C300.4 587.049 276.008 581.598 260.569 593.278C252.719 599.247 248.373 608.788 247.724 621.571C247.594 622.997 246.361 624.165 244.934 624.165Z" fill="white"/>
<path d="M302.155 366.354C301.377 366.354 300.663 366.03 300.144 365.446L298.003 363.109C287.624 351.624 282.563 344.226 299.949 326.186C300.987 325.083 302.739 325.083 303.841 326.121C304.945 327.159 304.945 328.911 303.906 330.014C289.18 345.264 292.684 349.093 302.09 359.475L304.231 361.876C305.204 362.979 305.139 364.731 304.036 365.705C303.452 366.094 302.804 366.354 302.155 366.354Z" fill="white"/>
<path d="M180.843 861.019C144.06 861.019 111.169 851.675 83.2743 832.923C32.2193 798.725 2.18318 735.066 0.755974 658.298C-0.411738 591.849 36.0468 515.406 100.919 448.504C152.883 394.904 212.047 359.926 251.619 359.472C251.619 359.472 251.619 359.472 251.684 359.472C253.176 359.472 264.529 360.965 264.594 362.457C264.594 363.949 253.241 364.923 251.749 364.923C214.123 365.377 155.153 400.547 104.942 452.333C41.1067 518.196 5.10245 593.214 6.27016 658.234C7.63249 733.183 36.8252 795.221 86.3231 828.379C137.508 862.709 206.208 864.523 284.964 833.766C383.244 795.349 426.709 684.773 434.561 594.057C442.021 507.88 421.195 453.955 398.685 440.328C351.523 411.71 352.042 373.489 352.301 350.647C352.431 342.276 352.496 335.073 349.771 334.229C348.474 333.84 347.501 334.099 346.463 335.137C339.003 342.73 338.678 379.912 348.474 408.92C348.928 410.349 348.214 411.906 346.787 412.36C345.36 412.813 343.803 412.099 343.349 410.67C334.332 383.87 332.191 341.951 342.635 331.309C345.101 328.778 348.214 328 351.458 329.038C358.075 331.114 357.945 339.356 357.815 350.776C357.556 372.45 357.102 408.723 401.541 435.72C426.255 450.712 447.731 505.673 440.011 594.639C431.965 686.981 387.594 799.632 286.974 838.956C249.024 853.622 213.409 861.019 180.843 861.019Z" fill="white"/>
<path d="M138.22 646.232C137.636 646.232 136.987 646.036 136.468 645.582C135.301 644.607 135.171 642.921 136.079 641.753C188.107 579.069 229.95 589.449 250.255 601.197C251.553 601.976 252.006 603.598 251.228 604.958C250.45 606.259 248.828 606.712 247.465 605.934C228.652 595.032 189.664 585.62 140.231 645.257C139.777 645.907 138.998 646.232 138.22 646.232Z" fill="white"/>
<path d="M398.556 588.084C376.954 588.084 347.177 582.244 310.2 561.284C308.902 560.57 308.448 558.884 309.162 557.584C309.875 556.287 311.562 555.769 312.86 556.548C391.486 601.194 436.443 574.65 436.897 574.393C438.193 573.615 439.882 574.004 440.661 575.301C441.439 576.597 441.05 578.287 439.75 579.065C438.779 579.648 424.506 588.084 398.556 588.084Z" fill="white"/>
<path d="M384.544 608.073C360.348 608.073 332.388 601.061 304.493 578.805C303.325 577.897 303.13 576.144 304.039 574.976C304.947 573.807 306.698 573.615 307.866 574.522C358.986 615.21 410.172 602.751 436.186 591.717C437.547 591.135 439.168 591.785 439.754 593.146C440.336 594.511 439.689 596.132 438.325 596.714C425.416 602.297 406.537 608.073 384.544 608.073Z" fill="white"/>
<path d="M193.558 602.422C192.974 602.422 192.39 602.229 191.871 601.84L61.0879 500.154C59.9202 499.247 59.6606 497.493 60.6337 496.325C61.5421 495.157 63.2936 494.896 64.4613 495.872L195.245 597.557C196.412 598.465 196.672 600.218 195.699 601.386C195.18 602.101 194.401 602.422 193.558 602.422Z" fill="white"/>
<path d="M253.821 296.919C258.297 311.454 261.93 315.413 261.93 315.413L262.773 316.451C272.764 313.596 278.537 313.661 287.749 312.363C288.982 311.195 290.279 310.026 291.577 308.923C291.706 307.561 292.031 306.133 292.55 304.77C292.809 299.709 292.42 294.712 291.707 289.65C279.186 292.506 266.536 294.842 253.821 296.919Z" fill="white"/>
<path d="M420.61 347.856C419.314 347.856 418.146 346.883 417.885 345.585C417.628 344.093 418.664 342.665 420.156 342.47C426.516 341.432 431.512 338.836 433.458 335.527C434.626 333.58 434.818 331.439 433.976 328.973C432.03 323.132 418.599 322.548 413.993 322.743C412.697 322.938 411.401 321.834 411.14 320.472L406.276 290.232C406.016 288.74 407.055 287.312 408.544 287.117C410.036 286.858 411.465 287.896 411.658 289.389L416.2 317.292C422.167 317.292 436.183 318.33 439.164 327.286C440.528 331.244 440.139 335.072 438.193 338.382C435.336 343.119 429.109 346.558 421.067 347.856C420.871 347.856 420.742 347.856 420.61 347.856Z" fill="#141820"/>
<path d="M347.046 295.682L344.97 302.042C342.245 310.218 354.961 314.436 357.685 306.26L359.761 299.9C362.486 291.724 349.771 287.506 347.046 295.682Z" fill="#141820"/>
<path d="M431.901 284.519L429.823 290.879C427.098 299.055 439.814 303.273 442.539 295.097L444.613 288.738C447.338 280.561 434.626 276.343 431.901 284.519Z" fill="#141820"/>
<path d="M264.464 359.409C251.684 357.787 245.91 349.74 244.808 342.667C244.029 337.865 245.132 333.452 248.051 329.559C253.695 322.161 266.086 317.034 283.991 314.633C285.872 313.206 287.818 311.778 289.7 310.351C289.246 309.312 288.143 308.598 286.91 308.793C265.243 311.194 250.711 317.034 243.705 326.314C238.839 332.673 238.71 339.227 239.358 343.64C240.785 352.595 247.986 362.913 263.75 364.925C263.88 364.925 264.01 364.925 264.075 364.925C265.437 364.925 269.589 367.78 269.719 366.417C269.913 364.86 265.956 359.604 264.464 359.409Z" fill="white"/>
<path d="M449.416 365.508C445.392 368.234 441.307 370.959 437.282 373.684C433.715 376.087 437.804 381.405 441.371 379.005C445.392 376.28 449.48 373.555 453.501 370.829C457.068 368.428 452.983 363.107 449.416 365.508Z" fill="#141820"/>
<path d="M454.28 211.325C442.471 164.602 405.105 146.822 340.427 156.88C297.416 163.564 269.132 177.062 253.951 198.087C242.015 214.699 238.317 235.789 242.793 262.654L454.28 211.325Z" fill="white"/>
<path d="M247.249 301C246.017 301 244.854 300.219 244.444 298.983L234.112 263.983C233.907 263.268 233.975 262.487 234.386 261.837C234.796 261.186 235.412 260.731 236.233 260.535L464.419 209.077C465.172 208.881 466.061 209.077 466.746 209.467C467.432 209.922 467.842 210.573 467.978 211.354L472.972 245.378C473.179 246.744 472.219 248.11 470.784 248.435L247.933 300.87C247.728 301 247.454 301 247.249 301ZM240.475 265.284L249.233 294.95L466.814 243.751L462.641 215.192L240.475 265.284Z" fill="white"/>
<path d="M355.739 274.707C351.068 275.551 345.619 277.303 340.17 279.769C336.277 281.586 339.78 287.231 343.673 285.479C348.149 283.468 352.884 282.235 357.62 281.132C361.837 280.158 359.956 273.928 355.739 274.707Z" fill="#141820"/>
<path d="M433.586 257.121C429.566 256.407 425.348 256.407 421.392 255.369C417.239 254.331 414.775 260.56 418.992 261.598C423.535 262.766 428.205 262.961 432.876 263.74C437.09 264.519 437.804 257.835 433.586 257.121Z" fill="#141820"/>
<path d="M461.743 250.782L461.482 249.355C461.221 247.862 459.797 246.954 458.304 247.148C456.811 247.408 455.837 248.835 456.097 250.328L456.358 251.755C473.937 348.509 484.575 406.977 455.383 430.791C447.274 437.41 441.567 440.657 435.34 442.796C435.143 442.861 434.951 442.925 434.754 442.993C430.408 444.418 425.738 445.329 419.767 446.497L416.264 447.208C415.421 447.34 413.086 447.404 412.697 448.119C412.307 448.833 413.929 450.194 414.254 450.973L420.481 465.314C420.87 466.221 421.713 466.871 422.752 466.936C422.817 466.936 422.949 466.936 423.013 466.936C423.92 466.936 424.763 466.482 425.284 465.768L426.191 464.471L437.607 447.794C444.096 445.522 450.323 441.954 458.822 435.074C490.61 409.117 479.712 349.483 461.743 250.782Z" fill="white"/>
<path d="M620.876 932.987C619.576 932.987 618.473 932.08 618.216 930.783C617.891 929.29 618.862 927.861 620.354 927.536C631.385 925.332 646.433 913.845 662.327 901.711C677.378 890.288 694.375 877.311 710.984 869.849C713.901 868.549 717.34 867.06 721.168 865.434C775.403 842.138 919.42 780.233 907.743 624.686C895.156 457.266 629.76 377.905 474.912 357.463C473.42 357.269 472.381 355.906 472.573 354.413C472.77 352.921 474.134 351.817 475.623 352.077C522.851 358.307 644.165 378.62 750.621 432.284C852.794 483.741 907.483 548.376 913.192 624.361C925.194 783.737 778.581 846.81 723.375 870.496C719.611 872.121 716.172 873.611 713.319 874.911C697.293 882.112 681.206 894.314 665.701 906.122C648.511 919.231 633.72 930.522 621.458 932.987C621.265 932.923 621.069 932.987 620.876 932.987Z" fill="white"/>
<path d="M832.097 807.487C831.969 807.487 831.84 807.487 831.708 807.487C830.219 807.226 829.18 805.862 829.441 804.372C835.019 767.839 792.786 729.487 728.756 712.809L720.972 727.476C720.257 728.837 718.636 729.29 717.276 728.576C715.912 727.865 715.458 726.24 716.172 724.879L724.996 708.33C725.578 707.226 726.874 706.644 728.11 706.969C797.199 724.361 841.118 764.724 834.954 805.215C834.565 806.512 833.397 807.487 832.097 807.487Z" fill="white"/>
<path d="M724.539 709.956L727.263 709.63L724.475 709.566C721.554 685.166 718.572 659.923 732.973 646.554C742.64 637.599 758.727 635.459 782.144 640.067C783.637 640.324 784.612 641.817 784.287 643.246C784.026 644.739 782.534 645.711 781.109 645.386C759.505 641.171 744.975 642.857 736.669 650.515C724.278 661.999 727.135 685.816 729.86 708.852L727.199 709.566L724.539 709.956Z" fill="white"/>
<path d="M734.334 647.789C731.806 647.789 729.081 645.193 727.135 642.403C722.464 635.716 720.386 625.075 729.859 617.16C731.027 616.185 732.777 616.381 733.687 617.549C734.659 618.717 734.466 620.403 733.362 621.379C729.599 624.493 728.106 628.319 728.884 632.734C729.727 637.663 734.334 642.467 737.122 643.571C738.551 644.153 737.383 646.553 736.087 647.268C735.566 647.657 734.984 647.789 734.334 647.789Z" fill="white"/>
<path d="M731.613 622.025C730.77 622.025 729.859 621.636 729.342 620.857C715.005 599.961 631.967 561.738 631.124 561.413C629.76 560.766 629.178 559.145 629.76 557.78C630.41 556.419 632.031 555.834 633.396 556.419C636.899 558.041 718.704 595.614 733.884 617.807C734.727 619.039 734.402 620.725 733.17 621.636C732.716 621.893 732.195 622.025 731.613 622.025Z" fill="white"/>
<path d="M647.925 569.075C647.6 569.075 647.34 569.011 647.018 568.946C645.59 568.425 644.812 566.867 645.329 565.442L696.839 414.31C697.357 412.881 698.914 412.103 700.278 412.621C701.703 413.142 702.481 414.7 701.964 416.125L650.454 567.257C650.132 568.36 649.093 569.075 647.925 569.075Z" fill="white"/>
<path d="M592.655 853.497C590.448 853.497 588.502 852.847 586.945 851.551C581.171 846.879 582.014 835.391 589.281 820.078C600.765 796.003 612.634 771.086 646.822 762.713C677.507 755.187 680.363 752.915 715.265 725.204L716.69 724.04C717.276 723.582 718.054 723.325 718.833 723.454C719.74 723.582 812.443 739.678 818.735 814.82C818.867 816.313 817.764 817.678 816.271 817.807C814.714 817.935 813.415 816.835 813.35 815.342C807.773 748.958 729.731 731.176 719.158 729.101L718.7 729.491C682.892 757.912 679.974 760.248 648.122 768.035C618.605 775.236 607.639 794.25 594.212 822.479C587.531 836.431 587.463 845.06 590.32 847.332C592.523 849.086 597.583 847.461 603.164 843.178C608.549 839.027 612.442 832.084 616.202 825.332C623.208 812.809 631.124 798.6 649.743 806.062C653.96 807.748 657.981 809.177 661.613 810.538C673.747 814.953 682.502 818.132 685.163 825.011C686.784 829.162 685.941 833.966 682.635 840.324C681.92 841.689 680.299 842.142 678.935 841.492C677.575 840.778 677.053 839.156 677.767 837.791C680.231 833.055 681.01 829.487 680.038 827.022C678.285 822.479 670.501 819.625 659.734 815.731C656.035 814.367 652.014 812.938 647.733 811.188C634.303 805.801 628.789 814.106 621.005 828.058C616.98 835.263 612.767 842.724 606.471 847.593C601.347 851.422 596.612 853.497 592.655 853.497Z" fill="white"/>
</svg>
