<svg width="756" height="756" viewBox="0 0 756 756" fill="none" xmlns="http://www.w3.org/2000/svg">
<g >
<path d="M342.48 177.141C336.68 192.773 356.343 199.987 367.377 202.392C368.014 202.534 368.508 202.534 369.004 202.321C369.145 202.392 369.357 202.463 369.499 202.534C381.595 180.183 404.864 174.1 440.442 182.376C481.818 191.995 482.952 218.024 482.952 218.024C485.639 214.558 491.014 210.738 497.735 207.839C498.23 207.202 498.654 206.565 499.077 205.787C499.077 205.717 499.149 205.646 499.149 205.646C501.341 205.434 503.25 203.382 501.908 200.978C489.669 178.202 469.654 148.213 444.898 137.462C437.187 134.137 429.125 135.057 424.88 143.049C422.759 147.01 422.619 151.112 423.538 155.144C412.149 146.232 399.913 138.664 386.686 132.723C374.308 127.064 356.131 118.01 342.268 123.386C332.153 127.276 328.192 138.169 330.102 148.495C331.941 158.539 339.014 165.683 347.077 171.341C345.097 172.473 343.47 174.454 342.48 177.141Z" fill="white"/>
<path d="M358.324 327.87C367.307 344.987 386.335 349.655 406.138 349.655L407.269 415.082C407.269 415.082 412.009 436.299 451.899 428.024C475.808 423.073 478.212 410.202 478.212 410.202C478.212 410.202 476.514 383.039 474.745 322.99C490.803 311.531 496.39 279.49 496.39 279.49C529.279 275.388 559.27 254.593 546.679 222.34C537.769 199.494 514.004 200.837 497.735 207.84C491.086 210.739 485.639 214.559 482.952 218.025C482.952 218.025 481.821 191.996 440.442 182.377C404.864 174.101 381.595 180.255 369.5 202.535C365.043 210.669 362.144 220.996 360.658 233.444C356.131 271.356 349.27 310.47 358.324 327.87Z" fill="#C5C5C5"/>
<path d="M434.927 433.256C408.191 433.256 404.158 416.564 403.946 415.713C403.874 415.501 403.874 415.29 403.874 415.006L402.816 352.904C378.835 352.338 363.346 344.558 355.354 329.351C347.079 313.507 351.04 282.244 355.283 249.142C355.991 243.767 356.698 238.32 357.334 232.945C358.961 219.789 361.932 209.25 366.6 200.762C379.263 177.28 403.734 170.136 441.292 178.907C472.201 186.121 481.893 202.106 485.004 211.16C488.115 208.755 492.005 206.421 496.39 204.511C502.544 201.894 518.317 196.377 532.606 202.389C540.597 205.714 546.399 211.938 549.865 220.921C554.602 233.157 553.967 244.898 547.953 255.013C539.678 268.947 521.572 279.061 499.293 282.315C497.663 290.025 491.721 313.507 478.215 324.4C479.913 382.54 481.61 409.487 481.61 409.771C481.61 410.054 481.61 410.338 481.538 410.621C481.398 411.256 478.427 425.828 452.538 431.132C445.749 432.689 439.947 433.256 434.927 433.256ZM410.595 414.511C411.302 416.703 417.316 431.555 451.124 424.626C470.293 420.665 474.11 411.68 474.677 409.771C474.466 405.598 472.836 377.802 471.211 322.985C471.211 321.853 471.706 320.792 472.625 320.085C487.408 309.546 492.855 279.132 492.927 278.778C493.207 277.293 494.341 276.162 495.826 276.02C516.832 273.403 534.515 264.066 541.942 251.618C546.894 243.271 547.389 233.794 543.356 223.467C540.529 216.323 536 211.372 529.775 208.755C521.572 205.289 509.971 206.067 498.937 210.877C492.995 213.423 487.904 216.96 485.499 220.001C484.649 221.133 483.163 221.628 481.75 221.203C480.408 220.779 479.417 219.506 479.346 218.091C479.274 217.172 477.577 194.467 439.452 185.626C404.796 177.563 383.436 183.433 372.259 204.087C368.085 211.726 365.257 221.699 363.771 233.793C363.134 239.169 362.427 244.616 361.72 249.991C357.83 280.617 353.727 312.234 361.012 326.168C368.015 339.607 382.585 346.114 405.503 346.114C405.571 346.114 405.715 346.114 405.787 346.114C407.624 346.114 409.181 347.599 409.181 349.438L410.595 414.511Z" fill="white"/>
<path d="M394.889 284.719C393.831 284.719 392.768 284.224 392.133 283.305C379.682 265.764 387.253 246.312 404.581 218.727C405.571 217.171 407.692 216.676 409.249 217.666C410.807 218.657 411.302 220.779 410.311 222.335C391.922 251.688 388.595 266.612 397.648 279.415C398.711 280.97 398.355 283.093 396.87 284.154C396.307 284.507 395.6 284.719 394.889 284.719Z" fill="#2E3643"/>
<path d="M455.43 233.588C457.739 233.182 459.281 230.981 458.873 228.673C458.469 226.365 456.269 224.823 453.959 225.23C451.65 225.636 450.107 227.837 450.516 230.145C450.92 232.453 453.124 233.995 455.43 233.588Z" fill="#2E3643"/>
<path d="M385.333 232.101C387.643 231.694 389.185 229.494 388.777 227.186C388.372 224.877 386.172 223.336 383.863 223.742C381.553 224.149 380.011 226.349 380.419 228.657C380.827 230.966 383.027 232.507 385.333 232.101Z" fill="#2E3643"/>
<path d="M426.225 302.546C434.995 303.254 441.927 296.251 440.797 287.48C440.23 283.166 446.951 281.964 447.514 286.278C449.211 299.434 438.956 310.397 425.658 309.266C421.273 308.912 421.912 302.122 426.225 302.546Z" fill="#2E3643"/>
<path d="M449.499 207.276C450.206 205.437 452.114 204.73 453.883 205.296C455.724 205.791 457.561 206.357 459.33 206.852C461.099 207.347 461.946 209.61 461.311 211.237C460.604 213.076 458.695 213.784 456.926 213.218C455.086 212.722 453.248 212.157 451.479 211.661C449.71 211.096 448.864 208.903 449.499 207.276Z" fill="#2E3643"/>
<path d="M386.902 201.686L391.075 200.978C395.388 200.201 396.59 206.92 392.277 207.698L388.104 208.405C383.787 209.113 382.585 202.393 386.902 201.686Z" fill="#2E3643"/>
<path d="M493.846 253.954C493.49 253.954 493.207 253.883 492.855 253.813C491.086 253.247 490.024 251.408 490.591 249.568C493.139 241.01 507.072 224.954 521.5 224.954C521.644 224.954 521.784 224.954 521.923 224.954C523.764 225.025 525.322 226.581 525.25 228.42C525.178 230.33 523.481 231.886 521.784 231.745C521.712 231.745 521.572 231.745 521.5 231.745C510.394 231.745 498.866 245.749 497.168 251.478C496.673 252.964 495.331 253.954 493.846 253.954Z" fill="#2E3643"/>
<path d="M287.098 662.286C286.178 662.286 285.189 661.863 284.552 661.156C275.64 650.969 233.201 649.978 217.57 650.402H217.499C215.66 650.402 214.175 648.916 214.104 647.079C214.033 645.238 215.519 643.613 217.428 643.613C223.511 643.473 277.125 642.267 289.715 656.628C290.917 658.041 290.776 660.166 289.362 661.436C288.725 662.003 287.947 662.286 287.098 662.286Z" fill="white"/>
<path d="M210.281 809.049C194.155 809.049 178.735 804.308 166.075 793.346C148.392 778.068 132.619 744.755 116.492 688.523C109.066 662.494 102.629 635.475 96.3341 609.306C94.283 600.604 92.2316 592.186 90.2513 584.052C87.1392 570.474 86.7147 569.128 85.0171 563.402C84.3806 561.137 83.532 558.238 82.2589 553.71C81.2685 550.315 80.1368 545.998 78.5805 540.343C70.7295 511.627 60.0491 484.959 52.976 467.348C50.4297 461.054 48.4494 456.031 47.3177 452.776C46.2566 450.02 43.2859 443.371 39.82 435.66C28.6447 410.761 18.6009 387.775 17.6814 379.924C16.9741 373.629 19.4497 370.517 21.5716 369.032C24.7545 366.839 28.9276 366.91 32.1813 367.476C32.1105 366.768 32.1105 366.202 32.1105 365.636C32.0398 360.261 34.7983 356.017 39.608 353.895C42.4373 352.622 45.7614 352.198 48.7321 352.552C49.0153 347.247 51.986 342.72 57.0784 340.527C67.1929 336.142 73.7002 344.7 89.4734 370.659C83.532 354.956 80.0661 342.013 83.6733 334.515C85.0878 331.544 87.5633 329.493 90.8878 328.574C103.69 324.896 114.936 351.349 129.295 389.121C133.751 400.718 137.924 411.752 140.682 416.28C143.865 416.068 152.353 413.804 156.526 396.828C164.448 365.071 168.338 358.493 178.735 359.554C188.85 360.685 187.789 376.317 185.95 402.275C184.253 426.04 181.989 458.506 188.072 489.276C189.628 497.055 191.962 509.363 194.791 524.214C205.047 578.181 222.235 668.436 230.864 695.244C231.43 697.009 230.44 698.922 228.671 699.485C226.903 700.052 224.994 699.062 224.428 697.293C215.728 670.062 198.469 579.527 188.213 525.416C185.384 510.565 183.05 498.257 181.494 490.478C175.199 458.858 177.533 425.828 179.231 401.708C180.292 386.928 181.706 366.627 178.099 366.202C174.35 365.778 171.38 365.495 163.175 398.386C156.455 425.473 139.126 423.001 138.348 422.857C137.499 422.717 136.792 422.29 136.226 421.655C132.831 417.482 128.517 406.025 122.929 391.453C115.644 372.427 100.649 332.817 92.7268 335.01C91.3123 335.435 90.3927 336.142 89.7561 337.344C86.0075 345.054 94.9903 366.627 103.619 387.492C106.237 393.857 108.924 400.434 111.4 406.804C112.036 408.429 111.329 410.266 109.702 411.045C108.146 411.823 106.237 411.256 105.317 409.771C99.3048 400.011 94.1413 391.453 89.6854 384.025C71.366 353.612 65.2833 344.134 59.7663 346.539C56.0884 348.166 54.6029 351.986 56.0177 356.442C56.4418 357.927 55.876 359.483 54.6029 360.332C53.3298 361.181 51.6322 360.969 50.5004 359.978C49.7225 359.2 45.7614 358.422 42.3666 359.978C40.0325 361.039 38.9007 362.807 38.9007 365.354C38.9714 366.839 39.0421 368.961 39.5373 371.295C39.82 372.568 39.3252 373.912 38.2642 374.69C37.2031 375.468 35.7885 375.61 34.6568 375.044C33.2422 374.407 27.6545 372.922 25.3911 374.478C24.1887 375.327 24.1887 377.378 24.4009 379.006C25.2496 386.433 38.1935 415.362 45.9739 432.689C49.5811 440.824 52.4811 447.189 53.6129 450.232C54.7442 453.483 56.725 458.435 59.2005 464.66C66.3443 482.415 77.0954 509.291 85.0171 538.431C86.5733 544.089 87.7758 548.406 88.6951 551.801C89.9682 556.325 90.8171 559.157 91.4537 561.421C93.1513 567.147 93.5758 568.705 96.7586 582.426C98.7389 590.489 100.79 598.979 102.841 607.677C109.065 633.778 115.502 660.725 122.929 686.614C138.631 741.572 153.697 773.823 170.389 788.183C202.36 815.769 254.135 799.572 285.751 767.952C287.095 766.611 289.217 766.611 290.561 767.952C291.905 769.298 291.905 771.419 290.561 772.764C269.13 794.337 238.574 809.049 210.281 809.049Z" fill="white"/>
<path d="M139.975 417.558C144.007 416 147.19 422.014 143.087 423.568C122.292 431.634 111.541 452.285 116.988 474.001C118.049 478.246 111.4 479.659 110.339 475.414C104.186 451.083 116.422 426.683 139.975 417.558Z" fill="white"/>
<path d="M85.5819 422.079C84.3794 422.079 83.177 421.444 82.6112 420.31L49.7921 359.128C48.8724 357.501 49.5089 355.45 51.2065 354.53C52.8334 353.611 54.9552 354.248 55.8041 355.945L88.6232 417.055C89.5429 418.684 88.906 420.733 87.2088 421.655C86.7136 421.939 86.1477 422.079 85.5819 422.079Z" fill="white"/>
<path d="M66.3439 434.53C65.1415 434.53 63.9391 433.891 63.3732 432.761L30.5542 371.649C29.6347 370.022 30.2713 367.971 31.9688 367.052C33.5957 366.132 35.7176 366.769 36.5664 368.466L69.3853 429.578C70.305 431.204 69.6684 433.256 67.9708 434.175C67.4757 434.386 66.9098 434.53 66.3439 434.53Z" fill="white"/>
<path d="M43.5097 465.484C38.4173 456.994 33.3245 448.508 28.2319 440.022C25.9686 436.273 20.0979 439.667 22.3613 443.417C27.4539 451.903 32.5465 460.393 37.6391 468.879C39.9024 472.697 45.7731 469.234 43.5097 465.484Z" fill="white"/>
<path d="M212.542 379.501C210.986 389.684 209.43 399.939 207.874 410.126C207.237 414.371 213.744 416.28 214.451 411.963C216.008 401.78 217.564 391.525 219.12 381.338C219.686 377.024 213.178 375.185 212.542 379.501Z" fill="white"/>
<path d="M217.493 660.582C215.725 660.582 214.239 659.24 214.098 657.399C214.027 656.624 209.076 579.879 215.795 510.776C222.373 443.016 251.585 412.602 407.193 411.54C409.03 411.54 410.587 413.026 410.587 414.934C410.587 416.843 409.102 418.329 407.193 418.329C255.9 419.319 228.809 446.622 222.515 511.411C215.795 579.95 220.746 656.129 220.817 656.904C220.958 658.744 219.544 660.37 217.634 660.514C217.634 660.582 217.564 660.582 217.493 660.582Z" fill="white"/>
<path d="M667.48 820.226C665.643 820.226 664.157 818.74 664.086 816.9C664.086 815.769 661.753 705.923 657.085 605.556C654.537 551.377 651.778 513.536 648.879 492.954C642.585 449.17 606.652 424.063 538.892 416.212C521.353 414.159 501.477 413.309 478.204 413.521C476.367 413.521 474.81 412.039 474.81 410.126C474.81 408.217 476.295 406.732 478.204 406.732C501.761 406.52 521.916 407.371 539.742 409.491C610.969 417.766 648.879 444.785 655.671 492.035C658.639 512.829 661.398 550.954 663.946 605.272C668.614 705.711 670.946 815.698 670.946 816.76C670.946 818.597 669.461 820.154 667.48 820.226C667.552 820.226 667.552 820.226 667.48 820.226Z" fill="white"/>
<path d="M582.608 820.222C580.839 820.222 579.281 818.809 579.213 816.972L565.632 557.176C565.56 555.335 566.974 553.71 568.814 553.638C570.651 553.498 572.281 554.984 572.352 556.821L585.93 816.616C586.002 818.457 584.588 820.082 582.747 820.154C582.747 820.222 582.676 820.222 582.608 820.222Z" fill="white"/>
<path d="M288.79 820.226C286.951 820.226 285.395 818.74 285.395 816.903L281.999 552.016C281.999 550.107 283.485 548.622 285.324 548.55C287.233 548.55 288.719 550.035 288.79 551.876L292.185 816.763C292.256 818.672 290.77 820.158 288.79 820.226C288.86 820.226 288.86 820.226 288.79 820.226Z" fill="white"/>
<path d="M620.306 671.623C606.229 671.623 590.81 669.215 573.411 665.609C571.57 665.257 570.368 663.416 570.795 661.579C571.147 659.738 572.988 658.536 574.825 658.96C609.623 666.316 635.864 668.296 659.138 655.921C660.763 654.998 662.816 655.637 663.734 657.334C664.581 658.96 664.018 661.012 662.32 661.931C649.234 668.863 635.513 671.623 620.306 671.623Z" fill="white"/>
<path d="M400.895 397.399L385.62 416.072L424.664 466.996L441.636 427.953L400.895 397.399Z" fill="#444A53"/>
<path d="M424.664 470.391C423.602 470.391 422.612 469.896 421.977 469.045L382.933 418.121C381.943 416.847 382.014 415.15 383.005 413.876L398.284 395.203C399.414 393.789 401.466 393.577 402.948 394.636L443.693 425.193C444.963 426.112 445.39 427.809 444.751 429.295L427.775 468.338C427.28 469.472 426.29 470.179 425.088 470.391C424.948 470.391 424.804 470.391 424.664 470.391ZM389.937 416.14L423.814 460.347L437.395 429.011L401.466 402.063L389.937 416.14Z" fill="white"/>
<path d="M441.636 427.953L465.405 465.299L495.959 410.977L480.68 390.606L441.636 427.953Z" fill="#444A53"/>
<path d="M465.405 468.694C464.271 468.694 463.141 468.127 462.506 467.136L438.737 429.79C437.89 428.448 438.102 426.607 439.232 425.549L478.276 388.202C478.983 387.563 479.973 387.212 480.895 387.28C481.886 387.352 482.732 387.847 483.299 388.626L498.578 408.996C499.353 410.058 499.497 411.544 498.79 412.674L468.232 466.996C467.669 468.055 466.535 468.694 465.333 468.694C465.473 468.694 465.473 468.694 465.405 468.694ZM446.025 428.448L465.261 458.65L491.929 411.188L480.257 395.626L446.025 428.448Z" fill="white"/>
<path d="M441.64 555.267C439.731 555.267 438.246 553.781 438.246 551.872V427.953C438.246 426.04 439.731 424.554 441.64 424.554C443.549 424.554 445.035 426.04 445.035 427.953V551.94C445.035 553.781 443.549 555.267 441.64 555.267Z" fill="white"/>
<path d="M285.111 425.405C283.696 426.891 282.069 428.164 280.372 429.366C278.816 430.429 277.048 431.204 275.279 431.631V551.944C275.279 561.349 282.848 568.917 292.255 568.917C301.662 568.917 309.23 561.349 309.23 551.944V425.405H285.111Z" fill="white"/>
<path d="M570.867 416.068H546.89V551.944C546.89 561.349 554.458 568.92 563.866 568.92C573.271 568.92 580.839 561.349 580.839 551.944V419.89C577.232 419.535 573.838 418.193 570.867 416.068Z" fill="white"/>
<path d="M287.09 567.786V649.268C287.09 653.653 293.88 653.653 293.88 649.268V567.786C293.88 563.401 287.09 563.401 287.09 567.786Z" fill="white"/>
<path d="M561.387 567.435L565.348 648.845C565.56 653.229 572.349 652.874 572.137 648.489L568.176 567.079C567.964 562.695 561.175 563.046 561.387 567.435Z" fill="white"/>
</g>
</svg>
