<svg width="761" height="758" viewBox="0 0 761 758" fill="none" xmlns="http://www.w3.org/2000/svg">
<g >
<!-- <path d="M3.43896 378.924C3.43896 169.962 172.656 0.56543 381.394 0.56543C590.136 0.56543 759.352 169.962 759.352 378.924C759.352 587.888 590.136 757.284 381.394 757.284C172.656 757.284 3.43896 587.888 3.43896 378.924Z" fill="#141820"/> -->
<path d="M448.5 498.5C397.7 516.9 346.5 475.5 346.5 433C353.333 423.333 368 399.9 372 383.5C376 367.1 363.333 347.667 356.5 340C358.333 341.667 363 339.9 367 319.5C371 287.5 352 273.667 341.5 267.5L363 184.5C416 188 523.1 196.2 527.5 201C531.9 205.8 532.667 282 532.5 319.5C533.333 342.167 532.4 394.5 522 422.5C511.6 450.5 474 462.5 456.5 465C441.833 464.5 412.2 463.8 411 465C409.8 466.2 435.5 487.833 448.5 498.5Z" fill="#CDCDCD" stroke="black"/>
<path d="M532.487 339.738C531.304 339.738 530.2 339.144 529.523 338.127C528.423 336.516 528.846 334.311 530.455 333.124C541.467 325.663 547.817 312.52 547.817 297.088C547.817 282.504 541.128 269.193 530.033 261.477C528.423 260.374 527.997 258.17 529.1 256.474C530.2 254.863 532.403 254.439 534.096 255.541C547.224 264.529 555.016 280.046 555.016 297.003C555.016 314.81 547.566 330.072 534.519 338.89C533.841 339.568 533.164 339.738 532.487 339.738Z" fill="white"/>
<path d="M348.439 432.075C308.715 462.007 240.869 442.082 222.744 396.804C205.888 354.663 233.162 321.425 274.919 307.604C266.364 274.875 264.331 231.123 285.93 195.427C300.329 171.601 324.045 155.067 350.471 150.064C355.045 149.216 359.704 148.707 364.362 148.538H364.447C366.226 151.506 368.004 154.558 369.783 157.61C347.93 182.708 342.933 216.2 340.985 248.845C339.884 266.99 339.63 285.135 337.089 303.195C335.056 317.694 343.526 318.542 352.759 327.36C386.383 359.496 376.983 410.623 348.439 432.075Z" fill="white"/>
<path d="M344.965 294.293C347.929 253.594 367.495 190.001 367.495 190.001C385.705 206.874 514.535 213.658 529.443 205.942C523.427 172.789 499.798 142.858 427.378 142.858C341.661 142.858 313.117 178.639 313.117 235.788C313.117 292.937 313.117 293.021 313.117 293.021L313.795 294.208C326.331 292.767 332.344 294.293 344.965 294.293Z" fill="white"/>
<path d="M475.062 341.436C473.114 341.436 471.504 339.824 471.504 337.875C471.504 335.924 473.114 334.313 475.062 334.313C481.755 334.313 487.261 332.533 489.799 329.565C491.241 327.869 491.747 325.834 491.324 323.29C490.392 317.61 477.859 314.472 471.93 313.794C470.15 313.624 468.711 312.098 468.711 310.233V277.504C468.711 275.554 470.321 273.942 472.269 273.942C474.217 273.942 475.823 275.554 475.823 277.504V307.18C482.432 308.367 496.663 312.013 498.356 322.104C499.117 326.682 498.017 330.922 495.221 334.229C491.241 338.807 484.042 341.436 475.062 341.436Z" fill="#141820"/>
<path d="M495.308 271.4V278.522C495.308 287.764 509.623 287.764 509.623 278.522V271.4C509.623 262.158 495.308 262.158 495.308 271.4Z" fill="#141820"/>
<path d="M409.338 271.4V278.522C409.338 287.764 423.653 287.764 423.653 278.522V271.4C423.653 262.158 409.338 262.158 409.338 271.4Z" fill="#141820"/>
<path d="M412.047 236.802C406.287 238.074 400.781 239.6 395.362 241.889C391.127 243.67 394.769 249.86 399.004 248.079C403.745 246.044 408.912 244.772 413.995 243.67C418.398 242.737 416.537 235.869 412.047 236.802Z" fill="#141820"/>
<path d="M511.396 234.087C507.332 232.391 503.013 231.374 499.117 229.423C495.05 227.389 491.07 233.239 495.133 235.359C499.623 237.648 504.452 238.92 509.025 240.87C513.26 242.566 515.547 235.867 511.396 234.087Z" fill="#141820"/>
<path d="M430.425 373.739C425.091 372.891 417.975 370.432 417.637 364.073C417.382 359.495 410.183 359.495 410.521 364.073C411.115 373.824 419.669 379.251 428.565 380.607C433.051 381.369 434.915 374.418 430.425 373.739Z" fill="#141820"/>
<path d="M535.622 269.023C535.539 262.579 535.371 255.966 535.284 249.182C535.116 241.127 534.945 232.818 534.861 224.254C533.929 167.953 497.762 139.294 427.378 139.294C346.997 139.294 309.56 169.988 309.56 235.786V293.019C309.56 294.969 311.169 296.58 313.117 296.58C315.065 296.58 316.674 294.969 316.674 293.019V235.786C316.674 173.974 350.808 146.417 427.378 146.417C494.037 146.417 526.814 171.938 527.662 224.339C527.746 232.903 527.917 241.212 528.085 249.267C528.256 256.051 528.339 262.664 528.423 269.108C529.017 298.191 529.439 324.052 528.849 346.437C527.495 396.632 521.479 432.921 497.001 447.167C467.357 464.296 413.824 460.99 413.318 460.99C412.131 460.902 410.944 461.413 410.183 462.43C409.422 463.447 409.251 464.719 409.677 465.82C418.653 489.817 448.724 499.484 449.991 499.907C450.329 499.991 450.668 500.078 451.094 500.078C452.449 500.078 453.803 499.229 454.397 497.957L468.289 466.33C468.54 465.736 468.628 465.142 468.54 464.551C479.89 462.262 491.241 458.784 500.559 453.356C527.917 437.416 534.523 399.177 535.965 346.606C536.642 324.137 536.216 298.191 535.622 269.023Z" fill="white"/>
<path d="M322.263 348.218C306.086 348.218 297.023 342.877 292.195 338.213C286.859 333.041 283.894 326.173 283.894 318.881C283.894 314.048 285.249 306.926 291.602 300.905C300.749 292.257 317.266 288.441 340.643 289.628C342.591 289.713 344.116 291.409 344.031 293.359C343.946 295.309 342.083 296.92 340.305 296.75C319.214 295.649 304.053 298.871 296.514 306.078C292.872 309.554 291.009 313.878 291.009 318.881C291.009 321.933 291.771 327.868 297.192 333.041C303.121 338.722 312.777 341.52 325.143 341.011C327.091 341.011 328.785 342.453 328.87 344.403C328.955 346.353 327.43 348.049 325.482 348.133C324.296 348.218 323.28 348.218 322.263 348.218Z" fill="white"/>
<path d="M157.607 705.774C155.913 705.774 154.388 704.502 154.05 702.807C144.902 648.795 127.115 469.549 282.455 431.649C284.403 431.138 286.266 432.327 286.775 434.277C287.283 436.227 286.097 438.094 284.149 438.6C134.823 475.06 152.186 649.134 161.08 701.619C161.418 703.569 160.063 705.435 158.115 705.774C157.946 705.774 157.777 705.774 157.607 705.774Z" fill="white"/>
<path d="M425.939 507.201C416.537 507.201 406.207 505.418 396.549 501.773C378.593 494.989 347.424 476.42 341.156 428.007C340.902 426.057 342.257 424.274 344.205 424.023C346.153 423.768 347.932 425.124 348.186 427.074C354.03 471.758 382.574 488.887 399.007 495.077C420.266 503.045 441.019 500.756 448.811 493.888C450.249 492.616 452.536 492.7 453.891 494.227C455.162 495.667 455.078 497.96 453.552 499.229C447.54 504.489 437.461 507.201 425.939 507.201Z" fill="white"/>
<path d="M606.011 634.469C604.485 634.469 603.047 633.448 602.621 631.924C578.314 549.508 535.539 500.497 459.732 468.025C457.955 467.259 457.106 465.142 457.871 463.359C458.632 461.58 460.747 460.731 462.528 461.496C540.535 494.902 584.41 545.353 609.397 629.974C609.991 631.837 608.888 633.875 607.027 634.381C606.688 634.381 606.35 634.469 606.011 634.469Z" fill="white"/>
<path d="M344.625 715.441C343.101 715.441 341.661 714.424 341.153 712.813L309.644 599.532C309.136 597.666 310.237 595.632 312.101 595.125C313.964 594.615 315.997 595.716 316.505 597.582L348.014 710.863C348.522 712.729 347.421 714.763 345.557 715.27C345.303 715.442 344.964 715.441 344.625 715.441Z" fill="white"/>
<path d="M417.382 717.563C416.45 717.563 415.517 717.224 414.84 716.462C413.486 715.023 413.486 712.817 414.924 711.374C480.823 648.208 540.789 619.717 575.346 635.235C614.477 652.87 615.748 685.346 615.748 686.786C615.836 688.736 614.226 690.348 612.278 690.431C610.413 690.348 608.636 688.908 608.636 686.958C608.636 685.769 607.278 657.449 572.382 641.763C540.535 627.434 483.532 655.415 419.836 716.546C419.159 717.224 418.23 717.563 417.382 717.563Z" fill="white"/>
<path d="M599.912 700.434C598.047 700.434 596.438 698.994 596.354 697.044C595.677 685.681 595.338 680.425 570.267 662.957C568.657 661.856 568.235 659.567 569.418 657.955C570.522 656.344 572.809 655.921 574.418 657.106C600.083 674.997 602.621 681.781 603.553 696.705C603.64 698.655 602.198 700.35 600.166 700.518C600.083 700.434 599.995 700.434 599.912 700.434Z" fill="white"/>
<path d="M576.872 709.678C575.008 709.678 573.398 708.155 573.314 706.288C573.314 706.205 572.215 692.043 554.594 676.528C553.156 675.256 552.984 672.967 554.255 671.523C555.526 669.996 557.813 669.912 559.339 671.184C579.414 688.82 580.43 705.271 580.514 705.949C580.597 707.9 579.075 709.595 577.127 709.678C577.04 709.678 576.956 709.678 576.872 709.678Z" fill="white"/>
<path d="M554.685 720.447C552.821 720.447 551.295 719.003 551.128 717.14C551.04 716.63 549.773 704.083 531.73 693.06C530.036 692.043 529.527 689.837 530.542 688.142C531.562 686.443 533.762 685.937 535.459 686.954C556.885 700.011 558.243 715.952 558.243 716.63C558.41 718.58 556.884 720.275 554.936 720.447C554.853 720.447 554.769 720.447 554.685 720.447Z" fill="white"/>
<path d="M320.569 270.041C320.654 271.992 319.045 273.687 317.097 273.772H317.012C315.064 273.772 313.539 272.246 313.454 270.296C312.1 227.985 316.334 180.503 350.468 149.978C355.042 149.131 359.701 148.622 364.359 148.452C324.042 176.687 319.214 226.375 320.569 270.041Z" fill="#141820"/>
<path d="M397.9 408.585C397.562 408.585 397.223 408.501 396.797 408.417C394.598 407.739 341.743 390.61 321.754 339.143C321.077 337.278 321.924 335.242 323.787 334.48C325.651 333.801 327.683 334.649 328.446 336.514C347.249 384.759 398.494 401.462 399 401.55C400.864 402.144 401.964 404.178 401.374 406.04C400.864 407.652 399.426 408.585 397.9 408.585Z" fill="#141820"/>
<path d="M325.063 356.185C348.124 356.185 366.819 335.648 366.819 310.314C366.819 284.979 348.124 264.442 325.063 264.442C302.001 264.442 283.305 284.979 283.305 310.314C283.305 335.648 302.001 356.185 325.063 356.185Z" fill="#141820"/>
<path d="M325.06 359.748C299.65 359.748 279.745 338.041 279.745 310.315C279.745 283.097 300.074 260.882 325.06 260.882C350.047 260.882 370.374 283.013 370.374 310.315C370.459 338.889 351.317 359.748 325.06 359.748ZM325.06 268.005C303.97 268.005 286.86 286.998 286.86 310.23C286.86 334.311 303.292 352.456 325.06 352.456C347.167 352.456 363.26 334.65 363.26 310.23C363.26 286.998 346.15 268.005 325.06 268.005Z" fill="white"/>
<path d="M406.458 396.209C439.154 401.892 433.055 427.497 403.41 415.117C366.395 399.687 366.988 389.342 406.458 396.209Z" fill="#1E1E1E"/>
<path d="M330.82 284.457C327.009 281.913 323.451 288.103 327.178 290.647C341.662 300.398 341.746 320.408 327.347 330.244C323.621 332.872 327.178 339.062 330.989 336.433C349.877 323.376 349.877 297.345 330.82 284.457Z" fill="white"/>
<path d="M551.379 634.469C549.94 634.469 548.586 633.62 548.076 632.18L538.419 606.998C537.742 605.132 538.59 603.098 540.455 602.332C542.315 601.654 544.351 602.503 545.112 604.366L554.769 629.551C555.446 631.414 554.598 633.452 552.733 634.214C552.311 634.385 551.801 634.469 551.379 634.469Z" fill="white"/>
<!-- <path d="M381.394 753.475C174.758 753.475 7.24404 585.782 7.24404 378.924H-0.365967C-0.365967 589.991 170.555 761.093 381.394 761.093V753.475ZM755.547 378.924C755.547 585.782 588.036 753.475 381.394 753.475V761.093C592.237 761.093 763.157 589.991 763.157 378.924H755.547ZM381.394 4.37445C588.036 4.37445 755.547 172.066 755.547 378.924H763.157C763.157 167.859 592.237 -3.24365 381.394 -3.24365V4.37445ZM381.394 -3.24365C170.555 -3.24365 -0.365967 167.859 -0.365967 378.924H7.24404C7.24404 172.066 174.758 4.37445 381.394 4.37445V-3.24365Z" fill="black" fill-opacity="0.1"/> -->
</g>
</svg>
