<?xml version="1.0" encoding="UTF-8"?>
<svg xmlns="http://www.w3.org/2000/svg" viewBox="0 0 139 139">
  <g id="uuid-e91039e2-a0bb-4353-942f-effd17726c7e" data-name="Layer 1"/>
  <g id="uuid-b690cb7b-9047-40b6-b1b1-c20a45ba65b8" data-name="Layer 2">
    <g id="uuid-ce83c2d8-99e8-40f9-9514-075e08a84c87" data-name="Layer 2">
      <path d="M75.33,73.14c.25-.18,.59,.07,.47,.36-4.15,10.38-10.78,17.82-20.72,20.63-4.93,1.4-10.18,1.16-15.09-.32-.53-.16-1.07-.33-1.59-.5-4.87-1.56-9.19-3.37-13.01-5.46-4.95-2.7-9.05-5.86-12.4-9.51C6.23,70.98,2.49,61.61,.91,49.9c-.33-2.49-.57-5.07-.72-7.78-.13-2.35-.19-4.79-.19-7.31V1.21C0,.54,.54,0,1.21,0H11.48c.83,0,1.52,.68,1.52,1.52V45.21c0,10.93,4.8,20.73,12.4,27.45,3.74,3.3,8.15,5.85,13.01,7.41,3.55,1.15,7.35,1.77,11.28,1.77,9.05,0,18.24-3.27,25.64-8.7Z" style="fill: white;"/>
      <path d="M88.04,75.51c.09-.37,.63-.29,.61,.09-.57,10.17-1.96,19.88-5.27,26.45-5.94,11.77-18.22,18.83-31.32,18.68-4.43-.05-8.67-.42-12.7-1.08-.19-.03-.36,.11-.36,.3v17.54c0,.83-.68,1.52-1.52,1.52h-9.96c-.84,0-1.52-.68-1.52-1.52v-21.12c0-.13-.08-.24-.2-.29-4.17-1.62-7.96-3.63-11.32-5.99-.21-.14-.48,0-.48,.25v27.15c0,.83-.68,1.52-1.52,1.52H2.52c-.84,0-1.52-.68-1.52-1.52v-56.56c0-.33,.44-.43,.59-.14,2.79,5.5,6.95,10.43,12.27,14.49,3.59,2.75,7.7,5.1,12.27,6.97,3.96,1.62,8.26,2.89,12.87,3.73,4.12,.76,8.49,1.18,13.06,1.23,13.09,.14,25.38-6.91,31.32-18.69,1.97-3.9,3.5-8.27,4.66-13.01Z" style="fill: white;"/>
      <path d="M39,1.52V66.47c0,.25-.28,.4-.49,.26-5.34-3.6-9.52-9.08-12.49-15.95-.02-.04-.03-.08-.03-.13V1.21c0-.67,.55-1.21,1.21-1.21h10.27c.83,0,1.52,.68,1.52,1.52Z" style="fill: white;"/>
      <path d="M63.67,65.86c-.25,.18-.59-.07-.47-.36,4.15-10.38,10.78-17.82,20.72-20.63,4.93-1.4,10.18-1.16,15.09,.32,.53,.16,1.07,.33,1.59,.5,4.87,1.56,9.19,3.37,13.01,5.46,4.95,2.7,9.05,5.86,12.4,9.51,6.77,7.36,10.51,16.73,12.09,28.44,.33,2.49,.57,5.07,.72,7.78,.13,2.35,.19,4.79,.19,7.31v33.6c0,.66-.54,1.21-1.21,1.21h-10.28c-.83,0-1.52-.68-1.52-1.52v-43.69c0-10.93-4.8-20.73-12.4-27.45-3.74-3.3-8.15-5.85-13.01-7.41-3.55-1.15-7.35-1.77-11.28-1.77-9.05,0-18.24,3.27-25.64,8.7Z" style="fill: white;"/>
      <path d="M51.96,63.49c-.09,.37-.63,.29-.61-.09,.57-10.17,1.96-19.88,5.27-26.45,5.94-11.77,18.22-18.83,31.32-18.68,4.43,.05,8.67,.42,12.7,1.08,.19,.03,.36-.11,.36-.3V1.52c0-.83,.68-1.52,1.52-1.52h9.96c.84,0,1.52,.68,1.52,1.52V22.64c0,.13,.08,.24,.2,.29,4.17,1.62,7.96,3.63,11.32,5.99,.21,.14,.48,0,.48-.25V1.52c0-.83,.68-1.52,1.52-1.52h9.97c.84,0,1.52,.68,1.52,1.52V58.07c0,.33-.44,.43-.59,.14-2.79-5.5-6.95-10.43-12.27-14.49-3.59-2.75-7.7-5.1-12.27-6.97-3.96-1.62-8.26-2.89-12.87-3.73-4.12-.76-8.49-1.18-13.06-1.23-13.09-.14-25.38,6.91-31.32,18.69-1.97,3.9-3.5,8.27-4.66,13.01Z" style="fill: white;"/>
      <path d="M101,137.48V72.53c0-.25,.28-.4,.49-.26,5.34,3.6,9.52,9.08,12.49,15.95,.02,.04,.03,.08,.03,.13v49.44c0,.67-.55,1.21-1.21,1.21h-10.27c-.83,0-1.52-.68-1.52-1.52Z" style="fill: white;"/>
    </g>
  </g>
</svg>