<svg viewBox="0 0 900 650" height="100%" width="100%" xmlns="http://www.w3.org/2000/svg" xmlns:xlink="http://www.w3.org/1999/xlink" version="1.1"><g transform-origin="450 325" transform="scale(1, 1) rotate(0)"><rect x="0" y="0" width="900" height="650" fill="#002233"></rect><linearGradient id="linear-gradient-peak-58"><stop offset="0%" stop-color="#035adc" stop-opacity="100%"></stop><stop offset="100%" stop-color="#5195fb" stop-opacity="100%"></stop></linearGradient><filter id="shadow-peak-58" x="0" width="100%"><feDropShadow dx="0" dy="0" stdDeviation="10" flood-color="black" flood-opacity="0.5"></feDropShadow></filter><path d="M0 325 L150 388.5454295668751 L300 328.8619916769676 L450 273.4442754765041 L600 325.29880175134167 L750 293.2226370321587 L900 317.1937215141952 L900 650 L0 650Z" fill="none" strokeLinecap="round" style="transition: all 0.4s cubic-bezier(0.16, 1, 0.3, 1) 0s; fill: url(&quot;#linear-gradient-peak-58&quot;);" filter="url(#shadow-peak-58)"></path><path d="M0 343.49 L150 371.95623663790525 L300 270.2457129729539 L450 298.299337714687 L600 345.2280572971888 L750 353.43839740451426 L900 304.16600385285915 L900 650 L0 650Z" fill="none" strokeLinecap="round" style="transition: all 0.4s cubic-bezier(0.16, 1, 0.3, 1) 0s; fill: url(&quot;#linear-gradient-peak-58&quot;);" filter="url(#shadow-peak-58)"></path><path d="M0 398.96 L150 402.82199167696757 L300 347.4042754765041 L450 399.25880175134165 L600 367.18263703215865 L750 391.1537215141952 L900 418.669281087853 L900 650 L0 650Z" fill="none" strokeLinecap="round" style="transition: all 0.4s cubic-bezier(0.16, 1, 0.3, 1) 0s; fill: url(&quot;#linear-gradient-peak-58&quot;);" filter="url(#shadow-peak-58)"></path><path d="M0 491.40999999999997 L150 418.1657129729539 L300 446.21933771468696 L450 493.14805729718876 L600 501.3583974045142 L750 452.0860038528591 L900 517.9825444070995 L900 650 L0 650Z" fill="none" strokeLinecap="round" filter="url(#shadow-peak-58)" style="transition: all 0.4s cubic-bezier(0.16, 1, 0.3, 1) 0s; fill: url(&quot;#linear-gradient-peak-58&quot;);"></path></g></svg>