<svg viewBox="0 0 900 650" height="650" width="900" xmlns="http://www.w3.org/2000/svg" xmlns:xlink="http://www.w3.org/1999/xlink" version="1.1"><g transform-origin="center" transform="scale(1, 1) rotate(0)"><rect x="0" y="0" width="900" height="650" fill="#482122ff"></rect><linearGradient id="linear-gradient-smooth-74"><stop offset="0%" stop-color="#dc0303ff" stop-opacity="100%"></stop><stop offset="100%" stop-color="#dccc03ff" stop-opacity="100%"></stop></linearGradient><filter id="shadow-smooth-74" x="0" width="100%" y="-20%" height="150%"><feDropShadow dx="0" dy="0" stdDeviation="25" flood-color="#00000059"></feDropShadow></filter><path d="M0 175.5 S262.9098247408401 137.59017525915988 450 222.8495286575053 S722.3495286575053 222.8495286575053 900 160.78107556933537 L900 650 L0 650Z" fill="none" stroke-linecap="round" filter="url(#shadow-smooth-74)" stroke-width="1" style="transition: all 0.4s cubic-bezier(0.16, 1, 0.3, 1) 0s; fill: url(&quot;#linear-gradient-smooth-74&quot;);"></path><path d="M0 181.75 S272.3495286575053 229.0995286575053 450 204.31555120344274 S697.5655512034427 204.31555120344274 900 188.4007482829038 L900 650 L0 650Z" fill="none" stroke-linecap="round" filter="url(#shadow-smooth-74)" stroke-width="1" style="transition: all 0.4s cubic-bezier(0.16, 1, 0.3, 1) 0s; fill: url(&quot;#linear-gradient-smooth-74&quot;);"></path><path d="M0 200.5 S247.56555120344274 223.06555120344274 450 185.78107556933537 S689.7189244306646 185.78107556933537 900 214.49650138872676 L900 650 L0 650Z" fill="none" stroke-linecap="round" filter="url(#shadow-smooth-74)" stroke-width="1" style="transition: all 0.4s cubic-bezier(0.16, 1, 0.3, 1) 0s; fill: url(&quot;#linear-gradient-smooth-74&quot;);"></path><path d="M0 231.75 S239.71892443066463 217.03107556933537 450 238.4007482829038 S681.6507482829038 238.4007482829038 900 167.22644068626687 L900 650 L0 650Z" fill="none" stroke-linecap="round" filter="url(#shadow-smooth-74)" stroke-width="1" style="transition: all 0.4s cubic-bezier(0.16, 1, 0.3, 1) 0s; fill: url(&quot;#linear-gradient-smooth-74&quot;);"></path><path d="M0 275.5 S231.6507482829038 282.1507482829038 450 289.49650138872676 S688.9965013887268 289.49650138872676 900 335.25675937347114 L900 650 L0 650Z" fill="none" stroke-linecap="round" filter="url(#shadow-smooth-74)" stroke-width="1" style="transition: all 0.4s cubic-bezier(0.16, 1, 0.3, 1) 0s; fill: url(&quot;#linear-gradient-smooth-74&quot;);"></path><path d="M0 331.75 S238.99650138872676 345.74650138872676 450 267.22644068626687 S739.5235593137331 267.22644068626687 900 333.8867359806318 L900 650 L0 650Z" fill="none" stroke-linecap="round" filter="url(#shadow-smooth-74)" stroke-width="1" style="transition: all 0.4s cubic-bezier(0.16, 1, 0.3, 1) 0s; fill: url(&quot;#linear-gradient-smooth-74&quot;);"></path><path d="M0 400.5 S289.52355931373313 335.97644068626687 450 460.25675937347114 S734.7567593734711 460.25675937347114 900 429.4000712831039 L900 650 L0 650Z" fill="none" stroke-linecap="round" filter="url(#shadow-smooth-74)" stroke-width="1" style="transition: all 0.4s cubic-bezier(0.16, 1, 0.3, 1) 0s; fill: url(&quot;#linear-gradient-smooth-74&quot;);"></path></g></svg>