<svg viewBox="0 0 800 500" height="100%" width="100%" xmlns="http://www.w3.org/2000/svg" xmlns:xlink="http://www.w3.org/1999/xlink" version="1.1"><g transform-origin="400 250" transform="scale(1, 1) rotate(0)"><rect x="0" y="0" width="800" height="500" fill="#320101"></rect><linearGradient id="linear-gradient-smooth-91"><stop offset="0%" stop-color="#B7E7FF" stop-opacity="100%"></stop><stop offset="100%" stop-color="#927ace" stop-opacity="100%"></stop></linearGradient><filter id="shadow-smooth-91" x="0" width="100%"><feDropShadow dx="0" dy="0" stdDeviation="5" flood-color="black" flood-opacity="0.5"></feDropShadow></filter><path d="M0 250 S77.67800585522006 261.0113391885534 133.33333333333334 271.18180985562503 S221.18180985562503 271.18180985562503 266.6666666666667 251.2873305589892 S342.8220788793018 259.4887455459684 400 232.81475849216804 S467.9539972256559 251.2873305589892 533.3333333333334 250.09960058378056 S624.4147623423487 225.5852376576513 666.6666666666667 239.40754567738622 S750.5185748411653 232.81475849216804 800 247.3979071713984 L800 500 L0 500Z" fill="none" stroke-linecap="round" filter="url(#shadow-smooth-91)" style="transition: all 0.4s cubic-bezier(0.16, 1, 0.3, 1) 0s; fill: url(&quot;#linear-gradient-smooth-91&quot;);"></path><path d="M0 275 S87.8484765222917 296.18180985562503 133.33333333333334 284.4887455459684 S209.4887455459684 284.4887455459684 266.6666666666667 250.5852376576513 S334.62066389232257 276.2873305589892 400 259.93644590489566 S491.0814290090154 250.5852376576513 533.3333333333334 275.57935243239626 S617.185241507832 257.81475849216804 666.6666666666667 278.3161324681714 S748.3968874284377 259.93644590489566 800 261.8920012842864 L800 500 L0 500Z" fill="none" stroke-linecap="round" filter="url(#shadow-smooth-91)" style="transition: all 0.4s cubic-bezier(0.16, 1, 0.3, 1) 0s; fill: url(&quot;#linear-gradient-smooth-91&quot;);"></path><path d="M0 350 S76.15541221263508 359.4887455459684 133.33333333333334 351.2873305589892 S201.2873305589892 351.2873305589892 266.6666666666667 332.81475849216804 S357.74809567568207 325.5852376576513 400 350.09960058378056 S483.85190817449865 332.81475849216804 533.3333333333334 339.4075456773862 S615.0635540951043 334.93644590489566 666.6666666666667 347.3979071713984 S733.4329339171139 350.09960058378056 800 356.56976036261767 L800 500 L0 500Z" fill="none" stroke-linecap="round" filter="url(#shadow-smooth-91)" style="transition: all 0.4s cubic-bezier(0.16, 1, 0.3, 1) 0s; fill: url(&quot;#linear-gradient-smooth-91&quot;);"></path><path d="M0 475 S67.95399722565587 476.2873305589892 133.33333333333334 450.5852376576513 S224.4147623423487 450.5852376576513 266.6666666666667 459.93644590489566 S350.51857484116533 457.81475849216804 400 475.57935243239626 S481.730220761771 459.93644590489566 533.3333333333334 478.3161324681714 S600.0996005837806 475.09960058378056 666.6666666666667 461.8920012842864 S733.9126857657296 475.57935243239626 800 483.8575148023665 L800 500 L0 500Z" fill="none" stroke-linecap="round" filter="url(#shadow-smooth-91)" style="transition: all 0.4s cubic-bezier(0.16, 1, 0.3, 1) 0s; fill: url(&quot;#linear-gradient-smooth-91&quot;);"></path></g></svg>